<mxfile host="app.diagrams.net" modified="2023-12-01T20:46:22.014Z" agent="Mozilla/5.0 (Windows NT 10.0; Win64; x64) AppleWebKit/537.36 (KHTML, like Gecko) Chrome/119.0.0.0 Safari/537.36 Edg/119.0.0.0" etag="ieHEgz1R2Yj34L7TGCEU" version="22.1.5" type="device">
  <diagram name="Page-1" id="vhrQQD8StziWEZ5yZY5w">
    <mxGraphModel dx="1042" dy="577" grid="1" gridSize="10" guides="1" tooltips="1" connect="1" arrows="1" fold="1" page="1" pageScale="1" pageWidth="827" pageHeight="1169" math="0" shadow="0">
      <root>
        <mxCell id="0" />
        <mxCell id="1" parent="0" />
        <mxCell id="bJBVrHD8HmfYbtijuRvS-2" value="&lt;font style=&quot;font-size: 18px;&quot;&gt;E-mail system&lt;/font&gt;&lt;br&gt;&lt;br&gt;&lt;br&gt;Sends email to user&lt;br&gt;&lt;br&gt;[Software system]" style="rounded=1;whiteSpace=wrap;html=1;fillColor=#999999;" parent="1" vertex="1">
          <mxGeometry x="555" y="280" width="265" height="140" as="geometry" />
        </mxCell>
        <mxCell id="bJBVrHD8HmfYbtijuRvS-3" style="edgeStyle=orthogonalEdgeStyle;rounded=0;orthogonalLoop=1;jettySize=auto;html=1;strokeWidth=2;fillColor=#f5f5f5;strokeColor=default;entryX=1;entryY=0.643;entryDx=0;entryDy=0;entryPerimeter=0;dashed=1;" parent="1" target="HC8tP_WXzWHIe9sJyfmu-1" edge="1">
          <mxGeometry relative="1" as="geometry">
            <mxPoint x="555" y="360" as="sourcePoint" />
            <mxPoint x="555" y="420" as="targetPoint" />
          </mxGeometry>
        </mxCell>
        <mxCell id="bJBVrHD8HmfYbtijuRvS-4" value="Sends email to" style="text;html=1;align=center;verticalAlign=middle;resizable=0;points=[];autosize=1;strokeColor=none;fillColor=none;" parent="1" vertex="1">
          <mxGeometry x="495" y="160" width="100" height="30" as="geometry" />
        </mxCell>
        <mxCell id="bJBVrHD8HmfYbtijuRvS-5" style="edgeStyle=orthogonalEdgeStyle;rounded=0;orthogonalLoop=1;jettySize=auto;html=1;strokeWidth=2;fillColor=#f5f5f5;strokeColor=default;entryX=0;entryY=0.75;entryDx=0;entryDy=0;exitX=1;exitY=0.75;exitDx=0;exitDy=0;exitPerimeter=0;dashed=1;" parent="1" source="HC8tP_WXzWHIe9sJyfmu-4" target="bJBVrHD8HmfYbtijuRvS-2" edge="1">
          <mxGeometry relative="1" as="geometry">
            <mxPoint x="421" y="380" as="sourcePoint" />
            <mxPoint x="421" y="440" as="targetPoint" />
          </mxGeometry>
        </mxCell>
        <mxCell id="bJBVrHD8HmfYbtijuRvS-6" value="Sends email using" style="text;html=1;align=center;verticalAlign=middle;resizable=0;points=[];autosize=1;strokeColor=none;fillColor=none;strokeWidth=2;dashed=1;" parent="1" vertex="1">
          <mxGeometry x="415" y="390" width="120" height="30" as="geometry" />
        </mxCell>
        <mxCell id="ZnC8D49AQNfIRF7SaCLx-1" value="." style="text;html=1;align=center;verticalAlign=middle;resizable=0;points=[];autosize=1;strokeColor=none;fillColor=none;strokeWidth=2;dashed=1;" parent="1" vertex="1">
          <mxGeometry x="75" y="278" width="30" height="30" as="geometry" />
        </mxCell>
        <mxCell id="sb4UtTwkAGZ6NW5wnTEB-2" value="" style="group;dashed=1;strokeColor=default;perimeterSpacing=11;" vertex="1" connectable="0" parent="1">
          <mxGeometry x="140" y="60" width="309" height="580" as="geometry" />
        </mxCell>
        <object placeholders="1" c4Name="User" c4Type="Person" c4Description="uses the web application for video game reviewing,&#xa; connecting with friends,&#xa; connecting with strangers" label="&lt;b&gt;%c4Name%&lt;/b&gt;&lt;div&gt;[%c4Type%]&lt;/div&gt;&lt;br&gt;&lt;div&gt;%c4Description%&lt;/div&gt;" id="HC8tP_WXzWHIe9sJyfmu-1">
          <mxCell style="html=1;whitespace=wrap;fillColor=#08427b;strokeColor=none;fontColor=#ffffff;shape=mxgraph.c4.person;align=center;metaEdit=1;points=[[0.5,0,0],[1,0.5,0],[1,0.75,0],[0.75,1,0],[0.5,1,0],[0.25,1,0],[0,0.75,0],[0,0.5,0]];metaData={&quot;c4Type&quot;:{&quot;editable&quot;:false}};strokeWidth=2;dashed=1;" parent="sb4UtTwkAGZ6NW5wnTEB-2" vertex="1">
            <mxGeometry width="297" height="160" as="geometry" />
          </mxCell>
        </object>
        <mxCell id="HC8tP_WXzWHIe9sJyfmu-3" style="edgeStyle=orthogonalEdgeStyle;rounded=0;orthogonalLoop=1;jettySize=auto;html=1;strokeWidth=2;fillColor=#f5f5f5;strokeColor=default;dashed=1;" parent="sb4UtTwkAGZ6NW5wnTEB-2" edge="1">
          <mxGeometry relative="1" as="geometry">
            <mxPoint x="149" y="160" as="sourcePoint" />
            <mxPoint x="149" y="220" as="targetPoint" />
          </mxGeometry>
        </mxCell>
        <mxCell id="HC8tP_WXzWHIe9sJyfmu-4" value="Video game reviewing, chatting and forum-based web application&lt;br&gt;&lt;br&gt;[Software system]&lt;br&gt;" style="rounded=1;whiteSpace=wrap;html=1;fillColor=#007FFF;strokeColor=none;strokeWidth=2;dashed=1;" parent="sb4UtTwkAGZ6NW5wnTEB-2" vertex="1">
          <mxGeometry x="16" y="220" width="265" height="140" as="geometry" />
        </mxCell>
        <object placeholders="1" c4Name="Moderator" c4Type="Person" c4Description="Oversees reported posts,&#xa; has the ability to suspend accounts,&#xa; delete any post" label="&lt;b&gt;%c4Name%&lt;/b&gt;&lt;div&gt;[%c4Type%]&lt;/div&gt;&lt;br&gt;&lt;div&gt;%c4Description%&lt;/div&gt;" id="HC8tP_WXzWHIe9sJyfmu-5">
          <mxCell style="html=1;whitespace=wrap;fillColor=#08427b;strokeColor=none;fontColor=#ffffff;shape=mxgraph.c4.person;align=center;metaEdit=1;points=[[0.5,0,0],[1,0.5,0],[1,0.75,0],[0.75,1,0],[0.5,1,0],[0.25,1,0],[0,0.75,0],[0,0.5,0]];metaData={&quot;c4Type&quot;:{&quot;editable&quot;:false}};strokeWidth=2;dashed=1;" parent="sb4UtTwkAGZ6NW5wnTEB-2" vertex="1">
            <mxGeometry x="16" y="420" width="293" height="160" as="geometry" />
          </mxCell>
        </object>
        <mxCell id="HC8tP_WXzWHIe9sJyfmu-6" style="edgeStyle=orthogonalEdgeStyle;rounded=0;orthogonalLoop=1;jettySize=auto;html=1;strokeWidth=2;fillColor=#f5f5f5;strokeColor=default;dashed=1;" parent="sb4UtTwkAGZ6NW5wnTEB-2" edge="1">
          <mxGeometry relative="1" as="geometry">
            <mxPoint x="164" y="420" as="sourcePoint" />
            <mxPoint x="163" y="360" as="targetPoint" />
          </mxGeometry>
        </mxCell>
        <mxCell id="g4n_K-lZ00VG2MNoE9fo-1" value="Connects to" style="text;html=1;align=center;verticalAlign=middle;resizable=0;points=[];autosize=1;strokeColor=none;fillColor=none;strokeWidth=2;dashed=1;" parent="sb4UtTwkAGZ6NW5wnTEB-2" vertex="1">
          <mxGeometry x="149" y="168" width="90" height="30" as="geometry" />
        </mxCell>
        <mxCell id="g4n_K-lZ00VG2MNoE9fo-2" value="Connects to" style="text;html=1;align=center;verticalAlign=middle;resizable=0;points=[];autosize=1;strokeColor=none;fillColor=none;strokeWidth=2;dashed=1;" parent="sb4UtTwkAGZ6NW5wnTEB-2" vertex="1">
          <mxGeometry x="165" y="378" width="90" height="30" as="geometry" />
        </mxCell>
      </root>
    </mxGraphModel>
  </diagram>
</mxfile>
